# xmcd CD database file
#
# Track frame offsets:
#	150
#	14270
#	30788
#	45562
#	62812
#	80837
#	93773
#	111158
#	125341
#	137647
#	153583
#	172816
#	192368
#	204638
#	220313
#
# Disc length: 3260 seconds
#
# Revision: 0
# Processed by: cddbd v1.5.2PL0 Copyright (c) Steve Scherf et al.
# Submitted via: CDex 1.70beta2
#
DISCID=c50cba0f
DTITLE=Nils Landgren - Christmas with my Friends III
DYEAR=2012
DGENRE=Jazz
TTITLE0=Christmas is here
TTITLE1=Dagen är kommen
TTITLE2=Ett barn är fött
TTITLE3=Imagine
TTITLE4=Someday at Christmas
TTITLE5=Somebody talkin
TTITLE6=Giv mig ej glans
TTITLE7=Ich steh an Deiner Krippen hier
TTITLE8=Away in a Manger
TTITLE9=Gläd dig, du Kristi brud
TTITLE10=River
TTITLE11=Nativity Carol
TTITLE12=Bethlehem Down
TTITLE13=Tochter Zion
TTITLE14=Infant Holy, Infant Lowly
EXTD=YEAR: 2012
EXTT0=
EXTT1=
EXTT2=
EXTT3=
EXTT4=
EXTT5=
EXTT6=
EXTT7=
EXTT8=
EXTT9=
EXTT10=
EXTT11=
EXTT12=
EXTT13=
EXTT14=
PLAYORDER=
